<?xml version="1.0" encoding="utf-8" ?>
<svg xmlns="http://www.w3.org/2000/svg" xmlns:xlink="http://www.w3.org/1999/xlink" width="1024" height="1024">
	<path d="M426.919 408.732C410.347 379.609 394.908 349.702 404.439 315.205C409.871 295.055 423.171 277.933 441.351 267.685C460.507 257.188 483.072 254.814 503.993 261.093C525.716 267.396 544.041 282.079 554.928 301.906C566.358 322.747 566.194 344.979 559.614 367.333C557.107 375.851 545.306 397.137 550.468 405.018C551.371 406.397 552.566 406.939 554.146 407.194C557.268 407.698 560.249 406.01 562.581 404.11C570.398 397.742 575.5 387.621 581.57 379.637C599.331 356.274 627.099 342.282 656.615 344.618C680.358 346.498 699.808 356.441 715.162 374.676C729.531 391.525 736.392 413.513 734.154 435.544C731.958 457.419 721.151 477.522 704.116 491.42C695.758 498.439 685.916 503.471 675.332 506.135C662.487 509.234 626.424 505.384 625.092 524.334C624.814 528.281 626.518 531.89 629.216 534.695C633.923 539.59 640.11 541.631 646.759 541.588C657.021 541.522 666.96 539.415 677.149 538.78C699.485 537.388 722.134 546.647 738.036 562.198C753.705 577.522 762.106 598.349 762.27 620.241C762.439 642.882 752.139 663.803 736.404 679.654C720.55 695.626 699.99 704.603 677.448 704.665C655.557 704.704 634.562 695.974 619.153 680.426C606.306 667.594 597.073 646.52 576.274 646.122C568.794 645.978 561.226 648.688 555.825 653.919C543.036 666.304 549.814 688.087 545.228 705.128C535.532 741.161 501.136 767.564 463.993 767.523C441.243 767.675 419.393 758.649 403.382 742.487C386.922 725.945 378.762 704.969 378.979 681.703C379.201 657.971 390.193 637.095 406.934 620.723C411.589 616.17 416.713 612.205 421.878 608.259C414.461 608.619 406.624 613.455 399.631 615.908C385.53 625.979 376.986 638.319 360.436 647.093C343.278 656.19 323.877 658.879 305.129 653.065C288.755 647.868 275.097 636.414 267.128 621.195C258.792 605.342 257.765 584.515 263.202 567.587C271.342 542.245 292.138 526.356 317.586 520.455C330.099 517.554 343.128 516.354 354.68 510.299C362.081 506.419 367.172 501.433 369.739 493.294C364.423 476.873 348.915 469.734 335.883 460.13C323.478 450.986 311.269 439.532 308.944 423.546C307.34 412.514 310.356 401.89 316.98 392.995C324.196 383.305 333.736 377.097 345.781 375.473C369.073 372.333 383.34 387.663 397.103 403.95C400.812 408.34 404.467 413.333 409.072 416.804C409.201 416.901 409.333 416.994 409.463 417.088C415.464 418.93 421.291 421.572 427.336 423.174C427.844 418.626 427.106 413.349 426.919 408.732ZM300.3 625.517C311.006 632.973 323.488 637.39 336.62 635C361.512 630.471 389.713 600.041 403.712 579.551C422.193 552.5 429.446 521.052 423.395 488.76C418.069 460.338 401.622 438.14 383.92 416.182C378.624 409.613 373.085 401.835 366.117 396.954C362.146 394.172 357.813 393.731 353.231 392.909C353.154 392.895 353.097 392.826 353.03 392.784C345.402 393.326 338.491 395.043 333.286 401.168C329.402 405.738 326.9 411.318 327.378 417.418C328.183 427.69 336.798 436.016 344.344 442.13C359.975 454.797 386.32 466.505 388.925 488.925C390.038 498.505 386.231 507.586 380.263 514.92C355.016 545.946 304.202 527.63 284.77 564.143C280.454 572.254 278.792 582.077 279.614 591.196C280.746 603.763 288.099 615.649 297.766 623.542C298.597 624.218 299.442 624.876 300.3 625.517ZM595.838 632.294C612.706 642.116 615.661 652.345 627.781 665.706C644.057 683.649 670.863 690.586 694 684.379C710.836 679.863 725.142 669.66 733.847 654.408C742.526 639.407 744.787 621.538 740.118 604.848C735.458 587.739 724.082 573.24 708.575 564.641C700.1 559.984 690.338 556.935 680.654 556.446C658.732 555.34 636.719 565.451 617.629 550.01C612.836 546.132 608.885 540.947 607.173 534.965C604.951 527.197 605.41 518.452 609.426 511.335C614.166 502.938 623.354 497.517 632.501 495.202C640.309 493.225 648.421 493.661 656.364 492.667C676.384 490.196 694.164 478.677 704.603 461.417C713.09 447.459 716.053 429.28 712.091 413.399C707.958 396.489 697.101 381.998 682.032 373.28C666.649 364.331 648.294 362.003 631.163 366.829C618.463 370.288 607.257 377.772 598.531 387.543C586.245 401.299 578.128 426.558 557.25 428.769C552.118 429.325 546.939 428.279 542.426 425.773C536.48 422.512 532.59 417.282 530.765 410.825C525.824 393.345 539.801 375.759 544.255 359.518C552.533 329.333 541.552 298.314 514.212 282.218C502.163 275.124 490.443 272.721 476.582 273.235C459.35 274.678 444.281 282.519 433.101 295.7C422.34 308.385 416.402 325.129 417.873 341.81C419.145 356.237 425.17 368.399 430.144 381.695C432.976 389.265 435.045 397.525 439.227 404.5C442.542 410.029 447.293 414.894 452.235 418.982C466.146 430.493 482.215 438.128 499.572 442.855C509.03 445.364 518.612 447.375 528.281 448.878C553.9 453.119 588.102 457.427 591.104 489.682C592.444 504.087 584.738 514.284 584.618 527C584.414 548.569 602.356 566.703 592.467 588.6C591.093 591.643 589.672 594.473 587.548 597.073C582.377 603.402 574.506 606.798 566.487 607.447C551.553 608.656 536.636 603.304 522.076 600.823C481.771 593.957 442.971 605.967 416.065 637.202C403.131 652.218 395.95 669.425 397.608 689.47C399.136 706.721 407.474 722.652 420.779 733.738C433.846 744.719 451.866 750.745 468.94 749.233C486.192 747.819 502.127 739.452 513.088 726.055C519.808 717.982 524.69 708.554 526.888 698.251C531.949 674.532 522.888 654.432 545.725 636.933C552.502 631.686 560.62 628.454 569.149 627.607C577.838 626.775 588.01 628.345 595.838 632.294Z"/>
	<path d="M369.739 493.294C364.423 476.873 348.915 469.734 335.883 460.13C323.478 450.986 311.269 439.532 308.944 423.546C307.34 412.514 310.356 401.89 316.98 392.995C324.196 383.305 333.736 377.097 345.781 375.473C369.073 372.333 383.34 387.663 397.103 403.95C400.812 408.34 404.467 413.333 409.072 416.804C409.201 416.901 409.333 416.994 409.463 417.088C415.464 418.93 421.291 421.572 427.336 423.174C427.521 430.056 431.661 439.059 428.344 445.448C432.785 454.005 437.165 462.49 440.355 471.615C449.277 497.131 449.459 526.673 441.29 552.404C435.573 570.409 425.211 586.345 412.976 600.577C408.619 605.646 403.609 610.558 399.631 615.908C385.53 625.979 376.986 638.319 360.436 647.093C343.278 656.19 323.877 658.879 305.129 653.065C288.755 647.868 275.097 636.414 267.128 621.195C258.792 605.342 257.765 584.515 263.202 567.587C271.342 542.245 292.138 526.356 317.586 520.455C330.099 517.554 343.128 516.354 354.68 510.299C362.081 506.419 367.172 501.433 369.739 493.294ZM300.3 625.517C311.006 632.973 323.488 637.39 336.62 635C361.512 630.471 389.713 600.041 403.712 579.551C422.193 552.5 429.446 521.052 423.395 488.76C418.069 460.338 401.622 438.14 383.92 416.182C378.624 409.613 373.085 401.835 366.117 396.954C362.146 394.172 357.813 393.731 353.231 392.909C353.154 392.895 353.097 392.826 353.03 392.784C345.402 393.326 338.491 395.043 333.286 401.168C329.402 405.738 326.9 411.318 327.378 417.418C328.183 427.69 336.798 436.016 344.344 442.13C359.975 454.797 386.32 466.505 388.925 488.925C390.038 498.505 386.231 507.586 380.263 514.92C355.016 545.946 304.202 527.63 284.77 564.143C280.454 572.254 278.792 582.077 279.614 591.196C280.746 603.763 288.099 615.649 297.766 623.542C298.597 624.218 299.442 624.876 300.3 625.517Z"/>
	<path fill="#6FB2F5" d="M409.463 417.088C415.464 418.93 421.291 421.572 427.336 423.174C427.521 430.056 431.661 439.059 428.344 445.448C422.617 435.612 416.05 426.358 409.463 417.088Z"/>
	<path fill="#6FB2F5" d="M426.919 408.732C443.022 429.953 465.928 463.427 494.091 467.286C504.734 468.745 515.515 465.856 526.049 464.677C540.342 463.076 558.356 464.351 568.002 476.575C573.257 483.234 575.368 492.264 574.232 500.599C573.017 509.523 568.598 517.861 568.531 526.969C568.391 545.801 585.036 565.433 565.17 580.427C558.125 585.744 549.539 586.787 541.031 585.544C527.42 583.555 515.62 575.197 502.003 573.624C477.486 570.793 454.917 585.706 435.835 599.201C431.884 601.995 426.384 606.968 421.878 608.259C414.461 608.619 406.624 613.455 399.631 615.908C403.609 610.558 408.619 605.646 412.976 600.577C425.211 586.345 435.573 570.409 441.29 552.404C449.459 526.673 449.277 497.131 440.355 471.615C437.165 462.49 432.785 454.005 428.344 445.448C431.661 439.059 427.521 430.056 427.336 423.174C427.844 418.626 427.106 413.349 426.919 408.732Z"/>
</svg>
