<?xml version="1.0" encoding="utf-8" ?>
<svg xmlns="http://www.w3.org/2000/svg" xmlns:xlink="http://www.w3.org/1999/xlink" viewBox="256 256 512 512">
    <path d="M601.091 248.217C601.351 248.18 601.609 248.128 601.871 248.105C616.915 246.744 634.156 254.475 645.406 263.954C659.156 275.657 667.774 292.281 669.412 310.262C671.445 334.955 658.801 361.903 637.673 375.138C625.281 382.9 612.217 386.51 602.378 398.129C588.035 415.068 580.115 440.912 582.065 462.985C584.06 483.631 594.157 502.645 610.143 515.861C623.711 527.167 642.997 535.866 660.91 535.277C669.179 535.005 677.403 533.3 685.646 532.604C707.885 530.726 731.7 535.208 748.999 550.05C763.393 562.4 772.795 579.417 774.119 598.438C775.292 615.287 769.211 631.239 758.098 643.823C746.001 657.367 728.985 665.503 710.848 666.418C685.432 667.737 662.651 656.064 648.575 634.981C641.741 624.745 636.57 613.857 627.204 605.521C611.361 591.419 584.366 581.784 563.11 583.032C543.3 584.196 526.616 595.71 513.81 610.172C498.246 627.749 487.087 649.891 487.407 673.759C487.512 681.656 488.992 689.474 489.437 697.356C490.608 718.125 485.816 737.807 471.586 753.491C459.139 767.21 442.429 774.594 424.041 775.588C407.168 775.749 391.498 771.43 378.345 760.536C364.765 749.137 356.252 732.823 354.67 715.164C352.16 685.811 366.201 662.243 390.701 646.945C402.243 639.738 413.357 635.104 422.296 624.284C435.95 607.755 444.583 581.55 442.44 560.127C440.482 540.556 429.752 522.213 414.538 509.948C407.352 504.155 399.209 499.661 390.756 496.01C365.72 485.194 356.639 490.106 331.37 492.596C310.961 494.572 290.609 488.297 274.856 475.171C260.763 463.758 251.852 447.157 250.13 429.104C248.542 411.759 254.007 394.505 265.293 381.239C277.07 367.45 293.843 358.906 311.921 357.487C335.881 355.677 360.134 365.886 373.437 386.371C380.812 397.727 386.237 410.728 396.703 419.703C413.349 433.977 440.486 442.261 462.273 440.366C481.556 438.689 499.451 427.71 511.731 413.071C525.608 396.53 535.005 374.546 535.521 352.804C535.739 343.628 534.448 334.505 533.682 325.381C532.062 306.09 537.643 286.797 550.306 272.004C563.719 256.336 580.931 249.762 601.091 248.217ZM563.5 420.352C564.078 420.214 564.613 420.032 565.16 419.8C574.429 415.878 578.354 402.793 583.628 394.903C587.59 388.917 592.329 383.483 597.72 378.743C617.054 361.719 637.871 363.624 648.779 336.073C654.105 322.621 653.725 308.265 647.904 295.031C642.392 282.56 632.097 272.828 619.335 268.027C606.849 263.211 592.56 264.25 580.466 269.788C572.325 273.57 565.309 279.407 560.109 286.724C542.925 310.847 554.047 335.017 552.21 361.573C551.407 373.173 547.495 383.24 543.45 393.997C540.858 400.89 538.876 406.622 542.101 413.722C546.615 418.237 552.349 420.699 558.749 420.859C560.354 420.9 561.937 420.701 563.5 420.352ZM481.685 612.108C480.444 610.662 479.174 609.154 477.716 607.922C472.934 603.88 468.011 603.175 462.019 603.811C459.083 604.738 455.708 605.622 453.292 607.602C448.118 611.843 445.319 620.399 441.717 626.074C437.662 632.509 432.785 638.387 427.209 643.56C409.585 660.057 389.46 660.433 376.812 684.703C370.6 696.622 368.869 710.083 373.098 722.951C377.418 736.095 386.663 747.589 399.108 753.831C410.833 759.719 424.427 760.667 436.856 756.462C450.027 751.966 461.573 741.885 467.629 729.341C475.915 712.176 471.639 696.482 470.809 678.542C470.347 668.415 471.409 658.275 473.958 648.463C475.904 641.146 483.875 625.772 483.812 619.829C483.791 617.818 483.014 615.691 482.357 613.798C482.156 613.22 481.927 612.67 481.685 612.108ZM420.571 460.047C419.031 454.354 416.458 450.88 411.276 447.843C407.41 445.576 403.077 443.961 399.057 441.967C391.735 438.337 384.974 433.037 379.385 427.099C371.254 418.461 367.261 407.413 360.811 397.676C348.448 378.689 325.199 369.914 303.373 375.996C290.622 379.552 279.77 387.958 273.141 399.416C266.697 410.696 265.077 424.099 268.65 436.588C272.529 450.359 281.879 461.541 294.344 468.418C323.823 484.684 339.137 469.503 366.179 471.985C371.667 472.525 377.09 473.588 382.376 475.16C391.815 478.026 399.438 482.388 409.627 479.728C412.09 478.364 414.303 476.862 416.149 474.705C419.715 470.537 421.045 465.453 420.571 460.047ZM603.575 564.397C607.197 575.799 617.376 578.754 626.678 584.297C631.71 587.295 636.604 590.965 640.84 595.014C649.986 603.753 655.591 615.127 662.538 625.489C670.662 637.608 682.142 646.334 696.649 649.045C710.616 651.702 725.065 648.625 736.738 640.508C747.275 633.392 754.485 622.316 756.729 609.801C758.916 597.091 755.287 584.009 747.909 573.564C734.25 554.226 711.343 547.754 688.542 549.123C676.146 549.867 664.172 552.393 651.658 551.534C639.147 550.674 629.302 544.429 617.513 542.464C611.541 545.965 606.592 549.136 604.587 556.235C603.834 558.901 603.555 561.632 603.575 564.397Z"/>
    <path fill="#69B7F7" d="M420.571 460.047C436.446 454.889 457.042 461.363 475.64 456.789C490.443 453.148 504.682 444.101 515.886 433.963C524.299 426.35 531.743 418.783 542.101 413.722C546.615 418.237 552.349 420.699 558.749 420.859C560.354 420.9 561.937 420.701 563.5 420.352C563.43 457.85 562.636 492.93 591.132 521.653C597.288 527.859 609.2 540.415 617.513 542.464C611.541 545.965 606.592 549.136 604.587 556.235C603.834 558.901 603.555 561.632 603.575 564.397C556.272 564.5 539.713 562.794 501.928 595.038C495.378 600.628 488.132 605.662 482.041 611.742C481.92 611.862 481.804 611.986 481.685 612.108C480.444 610.662 479.174 609.154 477.716 607.922C472.934 603.88 468.011 603.175 462.019 603.811C462.289 602.341 462.374 600.841 462.443 599.35C462.835 590.915 461.769 582.33 460.936 573.942C458.354 547.974 454.627 528.544 437.303 507.893C428.838 497.801 418.507 489.461 409.627 479.728C412.09 478.364 414.303 476.862 416.149 474.705C419.715 470.537 421.045 465.453 420.571 460.047Z"/>
    <path d="M462.869 262.736C474.955 261.97 488.867 265.714 499.215 271.833C511.742 279.093 520.85 291.057 524.514 305.064C528.029 319.035 525.793 333.832 518.308 346.14C504.927 368.12 468.137 385.39 443.478 391.368C442.326 391.59 441.165 391.756 439.997 391.868C424.987 393.264 411.053 390.79 399.288 380.858C388.239 371.531 382.896 357.384 381.797 343.232C380.438 325.752 390.657 304.85 401.756 291.897C417.632 273.37 438.935 264.593 462.869 262.736ZM444.124 373.659C463.554 367.687 494.681 353.787 504.499 335.492C509.227 326.684 510.223 316.348 507.263 306.799C504.206 297.049 497.087 289.759 488.076 285.209C480.274 281.269 470.604 278.997 461.85 279.691C441.589 282.392 424.045 290.292 411.312 306.831C402.872 317.793 397.228 332.499 399.123 346.469C400.323 355.316 404.474 363.609 411.667 369.059C418.999 374.615 428.886 376.411 437.886 375.024C439.953 374.705 442.113 374.239 444.124 373.659Z"/>
    <path d="M582.781 633.613C584.039 633.529 585.3 633.466 586.561 633.425C601.066 632.985 615.522 637.145 626.186 647.327C636.293 656.976 641.085 669.836 641.358 683.662C641.741 703.021 631.882 722.305 618.703 735.996C602.006 753.343 581.271 760.321 557.625 760.764C544.588 760.152 531.139 757.239 520.18 749.823C508.757 742.094 501.284 730.857 498.829 717.273C496.052 701.913 499.449 685.326 508.535 672.566C512.426 667.103 517.51 662.416 523.046 658.654C534.827 650.648 568.96 635.985 582.781 633.613ZM552.389 743.819C568.348 746.185 585.901 741.191 598.75 731.563C611.655 721.892 622.511 706.513 624.757 690.284C626.034 681.059 624.277 671.167 618.544 663.66C613.119 656.555 603.616 651.409 594.793 650.215C592.492 649.904 590.175 649.939 587.874 650.205C575.679 651.192 565.875 657.273 555.007 662.246C544.025 667.271 532.126 670.881 524.042 680.399C517.045 688.663 513.65 699.384 514.614 710.168C515.437 719.349 519.83 728.336 526.985 734.227C533.842 739.872 543.574 743.279 552.389 743.819Z"/>
    <path d="M678.406 384.2C678.719 384.134 679.028 384.053 679.343 384.003C694.376 381.648 714.605 390.263 726.406 399.022C744.278 412.463 756.023 432.501 759.017 454.662C761.583 472.976 759.037 492.524 747.589 507.556C739.207 518.562 728.001 523.697 714.526 525.482C698.226 525.606 683.23 522.281 670.289 511.928C665.971 508.442 662.106 504.431 658.783 499.988C651.272 490 638.93 466.602 634.719 454.995C633.155 450.742 632.121 446.313 631.64 441.807C630.122 427.752 633.583 412.915 642.565 401.814C651.718 390.503 664.283 385.687 678.406 384.2ZM708.375 508.497C717.362 508.609 725.134 506.611 731.737 500.189C740.167 491.99 743.415 479.167 743.48 467.737C743.729 449.562 736.651 432.052 723.842 419.156C712.683 408.05 697.749 400.863 681.901 400.789C672.258 401.173 663.522 404.142 656.815 411.343C650.413 418.322 647.063 427.569 647.509 437.029C648.051 449.998 668.094 487.94 677.694 496.748C685.601 504.002 697.587 508.837 708.375 508.497Z"/>
    <path d="M309.388 498.649C324.436 496.949 341.241 503.169 353.083 512.259C369.91 525.175 388.01 560.266 390.735 581.419C392.517 595.253 389.201 610.375 380.581 621.494C372.088 632.449 359.617 637.733 346.127 639.372C330.199 640.577 312.488 635.228 299.252 626.495C281.774 614.926 269.658 596.836 265.613 576.269C261.85 557.523 264.524 535.936 275.379 519.885C283.632 507.679 295.127 501.356 309.388 498.649ZM340.878 622.731C348.808 623.174 358.068 620.452 363.973 615.044C370.909 608.692 374.15 599.609 374.436 590.34C374.985 572.487 358.944 541.245 346.706 528.61C338.856 520.505 327.16 515.633 315.921 515.284C306.469 515.813 298.152 518.714 291.76 525.967C282.997 535.908 279.825 551.273 280.699 564.194C281.819 581.051 289.71 596.739 302.576 607.688C313.593 617.205 326.479 621.836 340.878 622.731Z"/>
</svg>
