<?xml version="1.0" encoding="utf-8" ?>
<svg xmlns="http://www.w3.org/2000/svg" xmlns:xlink="http://www.w3.org/1999/xlink" width="1024" height="1024">
	<path fill="#E2E2E2" d="M0 0L1024 0L1024 1024L0 1024L0 0ZM509.297 271.186C497.663 272.511 488.317 279.07 481.126 288.093C465.52 307.678 461.403 335.362 464.348 359.623C466.798 379.811 474.501 401.221 491.184 414.028C498.64 419.752 507.153 422.362 516.517 421.417C530.394 417.962 540.67 408.57 547.884 396.465C561.417 373.756 564.719 345.195 558.114 319.721C553.68 302.623 544.527 284.76 528.73 275.602C523.025 272.294 515.91 270.367 509.297 271.186ZM325.618 273.203C316.266 274.152 307.984 277.077 301.804 284.548C295.734 291.887 294.092 301.719 295.073 310.983C296.728 326.622 305.9 342.497 318.132 352.264C327.809 359.992 340.126 363.9 351.001 369.614C378.81 384.227 402.485 407.863 418.545 434.707C421.876 440.316 425.286 445.875 428.14 451.747C436.89 408.852 429.788 360.31 405.427 323.466C390.366 300.689 366.531 279.552 339.183 274.148C334.825 273.286 330.055 272.795 325.618 273.203ZM689.066 273.7C664.906 276.118 643.115 293.341 628.165 311.649C599.775 346.419 588.801 390.378 593.463 434.646C594.029 440.026 594.847 445.407 596.256 450.637C600.78 442.46 605.331 434.374 610.608 426.653C622.505 410.249 635.775 394.947 652.486 383.246C660.009 378.036 667.884 373.355 676.054 369.235C697.857 358.264 717.704 350.85 727.11 325.945C730.007 318.272 731.355 309.832 730.073 301.676C728.735 293.175 724.386 285.683 717.38 280.637C709.216 274.759 698.981 272.755 689.066 273.7ZM286.808 397.213C275.391 398.215 262.993 401.435 255.408 410.72C249.961 417.387 248.128 426.766 249.203 435.149C251.096 449.919 259.737 462.484 271.41 471.387C287.08 483.339 303.917 483.987 321.984 489.103C348.704 496.668 374.407 509.667 395.504 527.841C402.52 533.937 408.704 540.194 414.469 547.516C414.629 539.643 414.868 531.786 414.019 523.94C410.383 490.355 393.335 460.896 370.264 436.904C350.403 416.25 320.55 397.831 291.274 397.177C289.808 397.145 288.268 397.08 286.808 397.213ZM724.844 397.695C692.482 401.38 663.684 423.965 643.88 448.798C622.237 475.936 607.667 511.426 608.062 546.388C616.09 536.728 624.611 528.952 634.75 521.574C650.735 510.539 667.48 501.366 685.858 494.951C692.379 492.675 699.033 490.553 705.759 488.973C712.117 487.479 718.612 486.553 724.942 484.948C740.303 481.056 754.412 472.855 764.112 460.183C769.004 453.793 772.91 446.479 774.382 438.509C776.025 429.618 774.995 421.49 769.747 413.962C763.539 405.055 754 399.985 743.445 398.15C737.389 397.098 730.947 397.054 724.844 397.695ZM510.164 446.188C498.673 447.567 490.768 452.402 483.588 461.469C469.515 479.24 466.177 504.688 468.89 526.582C471.015 543.035 476.528 558.868 485.081 573.083C489.021 579.588 493.842 585.513 498.074 591.823C506.004 603.645 510.794 617.983 512.14 632.131L512.444 632.074L512.697 631.387C518.137 594.726 531.378 590.142 545.434 561.288C559.917 531.558 561.282 489.736 540.795 462.387C534.908 454.528 526.679 447.848 516.705 446.411C514.513 446.096 512.375 445.991 510.164 446.188ZM363.789 546.711C327.937 549.339 292.619 564.355 268.778 591.762C259.302 602.654 250.419 618.03 251.599 633.014C252.275 641.585 256.346 650.207 262.952 655.773C270.92 662.487 282.143 664.311 292.259 663.348C303.166 662.309 312.907 658.456 322.172 652.764C336.319 641.975 339.53 632.8 349.724 619.322C373.093 588.422 407.798 571.067 444.523 561.622C419.552 551.032 391.149 543.677 363.789 546.711ZM634.086 546.704C622.826 547.637 588.911 553.751 580.584 560.888L580.231 561.767C580.473 561.774 580.715 561.779 580.956 561.79C586.746 562.055 592.855 564.728 598.314 566.585C627.067 576.367 651.775 592.715 671.817 615.553C690.186 636.484 691.732 652.917 722.276 661.653C734.181 664.595 747.921 665.22 758.818 658.619C765.094 654.811 769.577 648.641 771.26 641.496C774.621 626.899 768.863 612.226 761.123 600.052C743.819 572.833 709.901 556.825 679.304 550.12C664.797 546.941 648.913 545.21 634.086 546.704ZM509.269 666.747C467.144 666.51 425.048 669.003 383.245 674.211C360.077 677.165 337.936 680.641 315.477 687.315C305.298 690.341 292.283 694.114 284.553 701.735C282.379 703.878 280.543 706.755 280.571 709.908C280.603 713.471 283.028 716.519 285.579 718.764C292.376 724.746 302.277 728.034 310.753 730.935C336.22 739.652 363.252 743.991 389.88 747.364C431.475 752.602 473.376 755.033 515.297 754.64C576.471 753.835 639.187 751.36 698.565 735.613C711.26 732.247 730.17 726.941 739.583 717.447C741.937 715.072 744.029 711.992 743.859 708.504C743.67 704.628 740.697 701.443 737.874 699.105C710.013 676.034 601.141 669.212 562.079 667.612C544.484 666.952 526.877 666.663 509.269 666.747Z"/>
	<path d="M516.517 421.417C507.153 422.362 498.64 419.752 491.184 414.028C474.501 401.221 466.798 379.811 464.348 359.623C461.403 335.362 465.52 307.678 481.126 288.093C488.317 279.07 497.663 272.511 509.297 271.186C515.91 270.367 523.025 272.294 528.73 275.602C544.527 284.76 553.68 302.623 558.114 319.721C564.719 345.195 561.417 373.756 547.884 396.465C540.67 408.57 530.394 417.962 516.517 421.417Z"/>
	<path d="M418.545 434.707C402.485 407.863 378.81 384.227 351.001 369.614C340.126 363.9 327.809 359.992 318.132 352.264C305.9 342.497 296.728 326.622 295.073 310.983C294.092 301.719 295.734 291.887 301.804 284.548C307.984 277.077 316.266 274.152 325.618 273.203C330.055 272.795 334.825 273.286 339.183 274.148C366.531 279.552 390.366 300.689 405.427 323.466C429.788 360.31 436.89 408.852 428.14 451.747C425.286 445.875 421.876 440.316 418.545 434.707Z"/>
	<path d="M596.256 450.637C594.847 445.407 594.029 440.026 593.463 434.646C588.801 390.378 599.775 346.419 628.165 311.649C643.115 293.341 664.906 276.118 689.066 273.7C698.981 272.755 709.216 274.759 717.38 280.637C724.386 285.683 728.735 293.175 730.073 301.676C731.355 309.832 730.007 318.272 727.11 325.945C717.704 350.85 697.857 358.264 676.054 369.235C667.884 373.355 660.009 378.036 652.486 383.246C635.775 394.947 622.505 410.249 610.608 426.653C605.331 434.374 600.78 442.46 596.256 450.637Z"/>
	<path d="M395.504 527.841C374.407 509.667 348.704 496.668 321.984 489.103C303.917 483.987 287.08 483.339 271.41 471.387C259.737 462.484 251.096 449.919 249.203 435.149C248.128 426.766 249.961 417.387 255.408 410.72C262.993 401.435 275.391 398.215 286.808 397.213C288.268 397.08 289.808 397.145 291.274 397.177C320.55 397.831 350.403 416.25 370.264 436.904C393.335 460.896 410.383 490.355 414.019 523.94C414.868 531.786 414.629 539.643 414.469 547.516C408.704 540.194 402.52 533.937 395.504 527.841Z"/>
	<path d="M608.062 546.388C607.667 511.426 622.237 475.936 643.88 448.798C663.684 423.965 692.482 401.38 724.844 397.695C730.947 397.054 737.389 397.098 743.445 398.15C754 399.985 763.539 405.055 769.747 413.962C774.995 421.49 776.025 429.618 774.382 438.509C772.91 446.479 769.004 453.793 764.112 460.183C754.412 472.855 740.303 481.056 724.942 484.948C718.612 486.553 712.117 487.479 705.759 488.973C699.033 490.553 692.379 492.675 685.858 494.951C667.48 501.366 650.735 510.539 634.75 521.574C624.611 528.952 616.09 536.728 608.062 546.388Z"/>
	<path d="M512.697 631.387L512.444 632.074L512.14 632.131C510.794 617.983 506.004 603.645 498.074 591.823C493.842 585.513 489.021 579.588 485.081 573.083C476.528 558.868 471.015 543.035 468.89 526.582C466.177 504.688 469.515 479.24 483.588 461.469C490.768 452.402 498.673 447.567 510.164 446.188C512.375 445.991 514.513 446.096 516.705 446.411C526.679 447.848 534.908 454.528 540.795 462.387C561.282 489.736 559.917 531.558 545.434 561.288C531.378 590.142 518.137 594.726 512.697 631.387Z"/>
	<path d="M322.172 652.764C312.907 658.456 303.166 662.309 292.259 663.348C282.143 664.311 270.92 662.487 262.952 655.773C256.346 650.207 252.275 641.585 251.599 633.014C250.419 618.03 259.302 602.654 268.778 591.762C292.619 564.355 327.937 549.339 363.789 546.711C391.149 543.677 419.552 551.032 444.523 561.622C407.798 571.067 373.093 588.422 349.724 619.322C339.53 632.8 336.319 641.975 322.172 652.764Z"/>
	<path d="M722.276 661.653C691.732 652.917 690.186 636.484 671.817 615.553C651.775 592.715 627.067 576.367 598.314 566.585C592.855 564.728 586.746 562.055 580.956 561.79C580.715 561.779 580.473 561.774 580.231 561.767L580.584 560.888C588.911 553.751 622.826 547.637 634.086 546.704C648.913 545.21 664.797 546.941 679.304 550.12C709.901 556.825 743.819 572.833 761.123 600.052C768.863 612.226 774.621 626.899 771.26 641.496C769.577 648.641 765.094 654.811 758.818 658.619C747.921 665.22 734.181 664.595 722.276 661.653Z"/>
	<path d="M515.297 754.64C473.376 755.033 431.475 752.602 389.88 747.364C363.252 743.991 336.22 739.652 310.753 730.935C302.277 728.034 292.376 724.746 285.579 718.764C283.028 716.519 280.603 713.471 280.571 709.908C280.543 706.755 282.379 703.878 284.553 701.735C292.283 694.114 305.298 690.341 315.477 687.315C337.936 680.641 360.077 677.165 383.245 674.211C425.048 669.003 467.144 666.51 509.269 666.747C526.877 666.663 544.484 666.952 562.079 667.612C601.141 669.212 710.013 676.034 737.874 699.105C740.697 701.443 743.67 704.628 743.859 708.504C744.029 711.992 741.937 715.072 739.583 717.447C730.17 726.941 711.26 732.247 698.565 735.613C639.187 751.36 576.471 753.835 515.297 754.64Z"/>
</svg>
